Coordinates
version=1
nRows=10
nColumns=40
inDegrees=yes

Units are S.I. units (second, meters, Newtons, ...)
If the header above contains a line with 'inDegrees', this indicates whether rotational values are in degrees (yes) or radians (no).

endheader
time	pelvis_tilt	pelvis_list	pelvis_rotation	pelvis_tx	pelvis_ty	pelvis_tz	hip_flexion_r	hip_adduction_r	hip_rotation_r	knee_angle_r	knee_angle_r_beta	ankle_angle_r	subtalar_angle_r	mtp_angle_r	hip_flexion_l	hip_adduction_l	hip_rotation_l	knee_angle_l	knee_angle_l_beta	ankle_angle_l	subtalar_angle_l	mtp_angle_l	lumbar_extension	lumbar_bending	lumbar_rotation	arm_flex_r	arm_add_r	arm_rot_r	elbow_flex_r	pro_sup_r	wrist_flex_r	wrist_dev_r	arm_flex_l	arm_add_l	arm_rot_l	elbow_flex_l	pro_sup_l	wrist_flex_l	wrist_dev_l
      0.31000000	     -5.96446525	     -7.74538833	      2.45607474	     -0.17737486	      0.92139828	      0.24349701	     15.46090713	     11.98089793	     -4.47825065	     15.96135019	      0.27857811	     -2.32940088	    -27.16702215	      0.00000000	     27.80235957	    -18.90531827	     -7.36753440	     76.93783599	      1.34281856	     -3.23245606	    -12.60409806	      0.00000000	      0.75643178	      7.54922012	      1.27208727	     42.26102241	    -16.00315064	     42.26102241	     76.01555179	     44.80989425	      0.00000000	      0.00000000	     42.26102241	    -16.00315064	     42.26102241	     76.01555179	     44.80989425	      0.00000000	      0.00000000
      0.31500000	     -5.95551694	     -7.65189699	      2.26982236	     -0.17111095	      0.92222971	      0.24352973	     14.74462071	     11.95119404	     -4.42807313	     15.51020851	      0.27070421	     -2.08003637	    -26.74982410	      0.00000000	     28.54328311	    -18.73464052	     -7.56214889	     76.59200948	      1.33678275	     -2.54163862	    -12.29526318	      0.00000000	      0.69689324	      7.41556791	      1.21275925	     42.26330012	    -16.00177250	     42.26330012	     76.01281950	     44.81131152	      0.00000000	      0.00000000	     42.26330012	    -16.00177250	     42.26330012	     76.01281950	     44.81131152	      0.00000000	      0.00000000
      0.32000000	     -5.84564343	     -7.57600714	      2.08849443	     -0.16481233	      0.92317209	      0.24348916	     13.90227453	     11.93077146	     -4.37707479	     15.02929085	      0.26231061	     -1.77515809	    -26.23803683	      0.00000000	     29.10873137	    -18.60035926	     -7.80089179	     76.11292373	      1.32842112	     -1.74965980	    -11.78302024	      0.00000000	      0.52041538	      7.31594557	      1.10553367	     42.26620381	    -16.00001668	     42.26620381	     76.00934361	     44.81310472	      0.00000000	      0.00000000	     42.26620381	    -16.00001668	     42.26620381	     76.00934361	     44.81310472	      0.00000000	      0.00000000
      0.32500000	     -5.62062806	     -7.44339490	      1.90911892	     -0.15829050	      0.92425350	      0.24352037	     12.92734345	     11.85341991	     -4.40931351	     14.56449200	      0.25419834	     -1.49514885	    -25.71615858	      0.00000000	     29.46303919	    -18.48323965	     -8.22016813	     75.51887847	      1.31805308	     -1.01059189	    -11.32495043	      0.00000000	      0.26638022	      7.12891570	      0.98009399	     42.27071085	    -15.99729374	     42.27071085	     76.00396483	     44.81585771	      0.00000000	      0.00000000	     42.27071085	    -15.99729374	     42.27071085	     76.00396483	     44.81585771	      0.00000000	      0.00000000
      0.33000000	     -5.59156610	     -7.32006493	      1.71842233	     -0.15196365	      0.92500464	      0.24350742	     12.18707238	     11.77734016	     -4.32100515	     14.12288833	      0.24649090	     -1.24910713	    -25.24915086	      0.00000000	     30.03807122	    -18.28944189	     -8.52036730	     74.85172150	      1.30640899	     -0.39499071	    -10.95918139	      0.00000000	      0.20354308	      6.97924421	      0.95120096	     42.27301383	    -15.99590356	     42.27301383	     76.00122430	     44.81725025	      0.00000000	      0.00000000	     42.27301383	    -15.99590356	     42.27301383	     76.00122430	     44.81725025	      0.00000000	      0.00000000
      0.33500000	     -5.13318597	     -7.03230474	      1.45529542	     -0.14556663	      0.92648350	      0.24371697	     10.96967273	     11.55388658	     -4.22796969	     13.68801226	      0.23890088	     -0.93736431	    -24.61930273	      0.00000000	     29.93360271	    -18.06099543	     -9.16547035	     73.93628312	      1.29043158	      0.23549367	    -10.45702268	      0.00000000	     -0.39380273	      6.57622714	      0.88741853	     42.28060650	    -15.99132575	     42.28060650	     75.99222631	     44.82177334	      0.00000000	      0.00000000	     42.28060650	    -15.99132575	     42.28060650	     75.99222631	     44.82177334	      0.00000000	      0.00000000
      0.34000000	     -5.02721016	     -6.87836411	      1.26471454	     -0.13924718	      0.92721152	      0.24372852	     10.16077425	     11.43155652	     -4.14138893	     13.27192605	      0.23163881	     -0.60428724	    -24.21332689	      0.00000000	     30.34750438	    -17.87199632	     -9.55662668	     73.11093920	      1.27602661	      0.79951110	    -10.00521806	      0.00000000	     -0.56017894	      6.40017493	      0.90478578	     42.28444353	    -15.98901533	     42.28444353	     75.98769938	     44.82402309	      0.00000000	      0.00000000	     42.28444353	    -15.98901533	     42.28444353	     75.98769938	     44.82402309	      0.00000000	      0.00000000
      0.34500000	     -4.58703453	     -6.47111638	      0.96382400	     -0.13284716	      0.92863600	      0.24405849	      8.96807753	     11.07711343	     -3.90537469	     12.87022119	      0.22462774	     -0.27621624	    -23.65748771	      0.00000000	     30.12151839	    -17.51451080	    -10.31390500	     71.94056432	      1.25559971	      1.23970555	     -9.61087015	      0.00000000	     -1.11170871	      5.88799156	      1.02111336	     42.29559620	    -15.98231269	     42.29559620	     75.97462773	     44.83040999	      0.00000000	      0.00000000	     42.29559620	    -15.98231269	     42.29559620	     75.97462773	     44.83040999	      0.00000000	      0.00000000
      0.35000000	     -4.57136795	     -6.40987400	      0.80934282	     -0.12648599	      0.92903705	      0.24396197	      8.27895690	     11.03078040	     -3.87099349	     12.47192968	      0.21767624	     -0.04639650	    -23.24745543	      0.00000000	     30.62929215	    -17.39308434	    -10.63814430	     71.02353605	      1.23959455	      1.78009022	     -9.10286909	      0.00000000	     -1.14335145	      5.82206235	      1.02776171	     42.29844839	    -15.98060131	     42.29844839	     75.97130304	     44.83201201	      0.00000000	      0.00000000	     42.29844839	    -15.98060131	     42.29844839	     75.97130304	     44.83201201	      0.00000000	      0.00000000
      0.35500000	     -4.21107379	     -6.19643783	      0.59376526	     -0.12009068	      0.93002552	      0.24410311	      7.19278968	     10.84314758	     -3.75361163	     12.05982460	      0.21048365	      0.28844682	    -22.71718748	      0.00000000	     30.56606221	    -17.19675856	    -11.21543409	     69.85443986	      1.21918997	      2.33194973	     -8.48118179	      0.00000000	     -1.58811273	      5.52969139	      1.03054653	     42.30403739	    -15.97725094	     42.30403739	     75.96480944	     44.83511441	      0.00000000	      0.00000000	     42.30403739	    -15.97725094	     42.30403739	     75.96480944	     44.83511441	      0.00000000	      0.00000000
